# Blender v2.77 (sub 0) OBJ File: 'numbers.blend'
# www.blender.org
mtllib four.mtl
o Cube.009_Cube.010
v -0.292770 -0.033417 0.000001
v 0.292053 -0.032983 -0.000000
v 0.292053 0.043886 -0.000000
v -0.112515 0.043886 -0.000000
v -0.118758 0.168753 0.000000
v -0.006046 0.168572 -0.000000
v 0.137247 0.244498 -0.000000
v 0.214116 0.244499 -0.000000
v 0.137247 0.086202 -0.000000
v 0.214116 0.086202 -0.000000
v 0.137247 -0.033070 -0.000000
v 0.214116 -0.033070 -0.000000
v 0.137247 -0.237634 -0.000000
v 0.214116 -0.237634 -0.000000
v -0.292770 -0.033417 0.100001
v 0.292053 -0.032983 0.100000
v 0.292053 0.043886 0.100000
v -0.112515 0.043886 0.100000
v -0.118758 0.168753 0.100000
v -0.006046 0.168572 0.100000
v 0.137247 0.244498 0.100000
v 0.214117 0.244499 0.100000
v 0.137247 0.086202 0.100000
v 0.214117 0.086202 0.100000
v 0.137247 -0.033070 0.100000
v 0.214117 -0.033070 0.100000
v 0.137247 -0.237634 0.100000
v 0.214117 -0.237634 0.100000
vt 0.0000 0.0000
vt 1.0000 0.0000
vt 1.0000 1.0000
vt 0.0000 1.0000
vt 0.0000 0.0000
vt 1.0000 0.0000
vt 1.0000 1.0000
vt 0.0000 1.0000
vt 0.0000 0.0000
vt 1.0000 0.0000
vt 1.0000 1.0000
vt 0.0000 1.0000
vt 0.0000 0.0000
vt 1.0000 0.0000
vt 1.0000 1.0000
vt 0.0000 1.0000
vt 0.0000 0.0000
vt 1.0000 0.0000
vt 1.0000 1.0000
vt 0.0000 1.0000
vt 0.0000 0.0000
vt 1.0000 0.0000
vt 1.0000 1.0000
vt 0.0000 1.0000
vt 0.0000 0.0000
vt 1.0000 0.0000
vt 1.0000 1.0000
vt 0.0000 1.0000
vt 0.0000 0.0000
vt 1.0000 0.0000
vt 1.0000 1.0000
vt 0.0000 1.0000
vt 0.0000 0.0000
vt 1.0000 1.0000
vt 0.0000 1.0000
vt 1.0000 0.0000
vt 0.0000 1.0000
vt 0.0000 0.0000
vt 1.0000 0.0000
vt 0.0000 1.0000
vt 0.0000 0.0000
vt 1.0000 1.0000
vt 0.0000 1.0000
vt 0.0000 0.0000
vt 1.0000 0.0000
vt 1.0000 1.0000
vt 1.0000 0.0000
vt 1.0000 1.0000
vt 0.0000 1.0000
vt 0.0000 0.0000
vt 1.0000 1.0000
vt 0.0000 1.0000
vt 1.0000 0.0000
vt 1.0000 1.0000
vt 0.0000 1.0000
vt 0.0000 0.0000
vt 1.0000 0.0000
vt 1.0000 1.0000
vt 0.0000 0.0000
vt 1.0000 1.0000
vt 0.0000 1.0000
vt 0.0000 0.0000
vt 1.0000 0.0000
vt 1.0000 1.0000
vt 0.0000 0.0000
vt 1.0000 0.0000
vt 0.0000 1.0000
vt 1.0000 0.0000
vt 0.0000 1.0000
vt 0.0000 0.0000
vt 1.0000 0.0000
vt 1.0000 1.0000
vn -0.0000 -0.0000 -1.0000
vn 0.0000 0.0000 1.0000
vn 0.0000 -1.0000 -0.0000
vn 0.7605 -0.6494 -0.0000
vn -1.0000 0.0000 0.0000
vn 0.0016 1.0000 0.0000
vn 1.0000 0.0000 -0.0000
vn -0.0000 1.0000 0.0000
vn -0.7579 0.6524 0.0000
vn 0.0007 -1.0000 -0.0000
usemtl Material
s off
f 4/1/1 3/2/1 2/3/1 1/4/1
f 1/5/1 5/6/1 6/7/1 4/8/1
f 8/9/1 10/10/1 9/11/1 7/12/1
f 12/13/1 14/14/1 13/15/1 11/16/1
f 18/17/2 15/18/2 16/19/2 17/20/2
f 15/21/2 18/22/2 20/23/2 19/24/2
f 22/25/2 21/26/2 23/27/2 24/28/2
f 26/29/2 25/30/2 27/31/2 28/32/2
f 13/33/3 14/14/3 28/34/3 27/35/3
f 4/1/4 6/36/4 20/23/4 18/37/4
f 11/38/5 13/39/5 27/31/5 25/40/5
f 6/41/6 5/6/6 19/42/6 20/43/6
f 14/44/7 12/45/7 26/46/7 28/32/7
f 8/9/8 7/47/8 21/48/8 22/49/8
f 2/50/7 3/2/7 17/51/7 16/52/7
f 12/13/8 11/53/8 25/54/8 26/55/8
f 5/56/9 1/57/9 15/58/9 19/24/9
f 9/59/3 10/10/3 24/60/3 23/61/3
f 3/62/8 4/63/8 18/64/8 17/20/8
f 7/65/5 9/66/5 23/27/5 21/67/5
f 1/5/10 2/68/10 16/19/10 15/69/10
f 10/70/7 8/71/7 22/72/7 24/28/7
