# Blender v2.77 (sub 0) OBJ File: 'numbers.blend'
# www.blender.org
mtllib nine.mtl
o Cube.007_Cube.008
v 0.298905 0.245142 0.000000
v 0.298904 -0.238929 0.000001
v -0.300425 -0.238496 -0.000000
v 0.215131 -0.161627 -0.000000
v -0.300424 -0.161562 -0.000000
v -0.300423 0.245144 -0.000000
v -0.216009 0.184230 -0.000000
v 0.215131 -0.030514 -0.000000
v -0.300424 -0.030514 -0.000000
v 0.298905 -0.002492 0.000000
v -0.216009 0.040358 -0.000000
v 0.214469 0.184230 -0.000000
v 0.214479 0.040358 0.000000
v 0.298905 0.245142 0.100000
v 0.298904 -0.238930 0.100001
v -0.300425 -0.238496 0.100000
v 0.215131 -0.161627 0.100000
v -0.300425 -0.161562 0.100000
v -0.300423 0.245144 0.100000
v -0.216009 0.184230 0.100000
v 0.215131 -0.030514 0.100000
v -0.300424 -0.030514 0.100000
v 0.298904 -0.002492 0.100000
v -0.216009 0.040358 0.100000
v 0.214469 0.184229 0.100000
v 0.214479 0.040358 0.100000
vt 0.0000 0.0000
vt 1.0000 0.0000
vt 1.0000 1.0000
vt 0.0000 1.0000
vt 0.0000 0.0000
vt 1.0000 0.0000
vt 1.0000 1.0000
vt 0.0000 1.0000
vt 0.0000 0.0000
vt 1.0000 0.0000
vt 1.0000 1.0000
vt 1.0000 0.0000
vt 1.0000 1.0000
vt 0.0000 1.0000
vt 0.0000 0.0000
vt 1.0000 0.0000
vt 1.0000 1.0000
vt 0.0000 1.0000
vt 0.0000 0.0000
vt 1.0000 0.0000
vt 0.0000 1.0000
vt 0.0000 0.0000
vt 1.0000 0.0000
vt 1.0000 1.0000
vt 0.0000 1.0000
vt 0.0000 0.0000
vt 1.0000 0.0000
vt 1.0000 1.0000
vt 0.0000 1.0000
vt 0.0000 0.0000
vt 1.0000 0.0000
vt 1.0000 1.0000
vt 0.0000 1.0000
vt 0.0000 0.0000
vt 1.0000 0.0000
vt 1.0000 1.0000
vt 1.0000 0.0000
vt 1.0000 1.0000
vt 0.0000 1.0000
vt 0.0000 0.0000
vt 1.0000 0.0000
vt 1.0000 1.0000
vt 0.0000 1.0000
vt 0.0000 0.0000
vt 1.0000 0.0000
vt 1.0000 1.0000
vt 0.0000 1.0000
vt 0.0000 0.0000
vt 1.0000 0.0000
vt 1.0000 1.0000
vt 0.0000 1.0000
vt 0.0000 0.0000
vt 0.0000 1.0000
vt 1.0000 0.0000
vt 0.0000 1.0000
vt 1.0000 0.0000
vt 1.0000 0.0000
vt 1.0000 1.0000
vt 0.0000 1.0000
vt 0.0000 0.0000
vt 0.0000 1.0000
vt 1.0000 0.0000
vt 1.0000 1.0000
vt 0.0000 1.0000
vt 0.0000 0.0000
vt 1.0000 1.0000
vt 0.0000 1.0000
vt 1.0000 0.0000
vt 1.0000 1.0000
vt 0.0000 0.0000
vt 1.0000 0.0000
vt 0.0000 1.0000
vt 0.0000 0.0000
vt 1.0000 1.0000
vt 0.0000 0.0000
vt 0.0000 0.0000
vt 1.0000 1.0000
vn 0.0000 -0.0000 -1.0000
vn -0.0000 0.0000 1.0000
vn -1.0000 0.0000 -0.0000
vn 1.0000 -0.0000 0.0000
vn 0.0000 1.0000 0.0000
vn -0.0007 -1.0000 -0.0000
vn 0.0001 1.0000 0.0000
vn -0.0000 -1.0000 -0.0000
vn -1.0000 -0.0001 -0.0000
usemtl Material
s off
f 4/1/1 2/2/1 3/3/1 5/4/1
f 1/5/1 12/6/1 7/7/1 6/8/1
f 8/9/1 13/10/1 10/11/1
f 8/9/1 10/12/1 2/13/1 4/14/1
f 11/15/1 9/16/1 6/17/1 7/18/1
f 12/19/1 1/20/1 10/11/1 13/21/1
f 13/22/1 8/23/1 9/24/1 11/25/1
f 17/26/2 18/27/2 16/28/2 15/29/2
f 14/30/2 19/31/2 20/32/2 25/33/2
f 21/34/2 23/35/2 26/36/2
f 21/34/2 17/37/2 15/38/2 23/39/2
f 24/40/2 20/41/2 19/42/2 22/43/2
f 25/44/2 26/45/2 23/46/2 14/47/2
f 26/48/2 24/49/2 22/50/2 21/51/2
f 6/52/3 9/16/3 22/50/3 19/53/3
f 11/15/4 7/54/4 20/32/4 24/55/4
f 1/5/5 6/56/5 19/42/5 14/47/5
f 13/22/5 11/57/5 24/58/5 26/59/5
f 3/60/6 2/2/6 15/38/6 16/61/6
f 4/1/7 5/62/7 18/63/7 17/64/7
f 7/65/8 12/6/8 25/66/8 20/67/8
f 8/9/3 4/68/3 17/69/3 21/51/3
f 12/19/9 13/10/9 26/36/9 25/33/9
f 5/70/3 3/71/3 16/28/3 18/72/3
f 9/73/8 8/23/8 21/74/8 22/43/8
f 2/75/4 10/12/4 23/46/4 15/29/4
f 10/76/4 1/20/4 14/77/4 23/39/4
