# Blender v2.77 (sub 0) OBJ File: 'numbers.blend'
# www.blender.org
mtllib seven.mtl
o Cube.008_Cube.009
v 0.293822 0.246512 0.000001
v -0.291002 0.246079 -0.000000
v -0.291001 0.169209 -0.000000
v 0.113567 0.169210 -0.000000
v -0.117091 -0.230891 -0.000000
v -0.228078 -0.230891 -0.000000
v 0.293822 0.246512 0.100001
v -0.291002 0.246079 0.100000
v -0.291001 0.169209 0.100000
v 0.113567 0.169210 0.100000
v -0.117091 -0.230891 0.100000
v -0.228078 -0.230891 0.100000
vt 0.0000 0.0000
vt 1.0000 0.0000
vt 1.0000 1.0000
vt 0.0000 1.0000
vt 0.0000 0.0000
vt 1.0000 0.0000
vt 1.0000 1.0000
vt 0.0000 1.0000
vt 0.0000 0.0000
vt 1.0000 0.0000
vt 1.0000 1.0000
vt 0.0000 1.0000
vt 0.0000 0.0000
vt 1.0000 0.0000
vt 1.0000 1.0000
vt 0.0000 1.0000
vt 1.0000 0.0000
vt 0.0000 1.0000
vt 0.0000 0.0000
vt 1.0000 1.0000
vt 0.0000 1.0000
vt 0.0000 0.0000
vt 1.0000 0.0000
vt 1.0000 1.0000
vt 1.0000 0.0000
vt 0.0000 1.0000
vt 0.0000 0.0000
vt 1.0000 0.0000
vt 1.0000 1.0000
vt 0.0000 0.0000
vt 1.0000 1.0000
vt 0.0000 1.0000
vn 0.0000 0.0000 -1.0000
vn -0.0000 -0.0000 1.0000
vn -0.0007 1.0000 0.0000
vn 0.0000 -1.0000 0.0000
vn 0.7579 -0.6524 0.0000
vn -0.7605 0.6494 0.0000
vn -1.0000 -0.0000 0.0000
usemtl Material
s off
f 4/1/1 3/2/1 2/3/1 1/4/1
f 1/5/1 5/6/1 6/7/1 4/8/1
f 10/9/2 7/10/2 8/11/2 9/12/2
f 7/13/2 10/14/2 12/15/2 11/16/2
f 1/5/3 2/17/3 8/11/3 7/18/3
f 6/19/4 5/6/4 11/20/4 12/21/4
f 5/22/5 1/23/5 7/24/5 11/16/5
f 4/1/6 6/25/6 12/15/6 10/26/6
f 3/27/4 4/28/4 10/29/4 9/12/4
f 2/30/7 3/2/7 9/31/7 8/32/7
