# Blender v2.77 (sub 0) OBJ File: 'numbers.blend'
# www.blender.org
mtllib three.mtl
o Cube.003_Cube.004
v 0.301919 -0.237559 0.000000
v 0.301918 0.246512 0.000001
v -0.297411 0.246079 -0.000000
v 0.218145 0.169210 -0.000000
v -0.297410 0.169209 -0.000000
v -0.297409 -0.237561 -0.000000
v -0.297191 -0.176647 -0.000000
v 0.218145 0.038097 -0.000000
v -0.297410 0.038097 -0.000000
v 0.301919 0.004211 0.000000
v -0.297191 -0.032775 -0.000000
v 0.218312 -0.032775 0.000000
v 0.218859 -0.176647 -0.000000
v 0.301919 -0.237559 0.100000
v 0.301918 0.246512 0.100001
v -0.297411 0.246079 0.100000
v 0.218145 0.169210 0.100000
v -0.297410 0.169209 0.100000
v -0.297409 -0.237561 0.100000
v -0.297191 -0.176647 0.100000
v 0.218145 0.038097 0.100000
v -0.297410 0.038097 0.100000
v 0.301919 0.004211 0.100000
v -0.297191 -0.032775 0.100000
v 0.218312 -0.032775 0.100000
v 0.218859 -0.176647 0.100000
vt 0.0000 0.0000
vt 1.0000 0.0000
vt 1.0000 1.0000
vt 0.0000 1.0000
vt 0.0000 0.0000
vt 1.0000 0.0000
vt 1.0000 1.0000
vt 0.0000 1.0000
vt 0.0000 0.0000
vt 1.0000 0.0000
vt 1.0000 1.0000
vt 1.0000 0.0000
vt 1.0000 1.0000
vt 0.0000 1.0000
vt 0.0000 0.0000
vt 1.0000 0.0000
vt 1.0000 1.0000
vt 0.0000 1.0000
vt 1.0000 1.0000
vt 0.0000 0.0000
vt 1.0000 0.0000
vt 1.0000 1.0000
vt 0.0000 1.0000
vt 0.0000 0.0000
vt 1.0000 0.0000
vt 1.0000 1.0000
vt 0.0000 1.0000
vt 0.0000 0.0000
vt 1.0000 0.0000
vt 1.0000 1.0000
vt 1.0000 0.0000
vt 1.0000 1.0000
vt 0.0000 1.0000
vt 0.0000 0.0000
vt 1.0000 0.0000
vt 1.0000 1.0000
vt 0.0000 1.0000
vt 1.0000 1.0000
vt 0.0000 1.0000
vt 0.0000 0.0000
vt 1.0000 0.0000
vt 1.0000 1.0000
vt 0.0000 0.0000
vt 1.0000 1.0000
vt 0.0000 1.0000
vt 0.0000 0.0000
vt 1.0000 0.0000
vt 0.0000 0.0000
vt 1.0000 0.0000
vt 0.0000 1.0000
vt 0.0000 0.0000
vt 1.0000 1.0000
vt 1.0000 0.0000
vt 1.0000 1.0000
vt 0.0000 1.0000
vt 0.0000 0.0000
vt 1.0000 0.0000
vt 0.0000 1.0000
vt 1.0000 0.0000
vt 1.0000 1.0000
vt 0.0000 0.0000
vt 1.0000 1.0000
vt 0.0000 1.0000
vt 0.0000 0.0000
vt 1.0000 1.0000
vt 0.0000 1.0000
vt 0.0000 1.0000
vt 1.0000 0.0000
vt 0.0000 1.0000
vt 0.0000 0.0000
vt 1.0000 0.0000
vn 0.0000 0.0000 -1.0000
vn -0.0000 -0.0000 1.0000
vn 0.0000 -1.0000 0.0000
vn -1.0000 0.0036 0.0000
vn -0.0007 1.0000 0.0000
vn -1.0000 -0.0038 0.0000
vn -0.0000 1.0000 0.0000
vn -1.0000 -0.0000 0.0000
vn -1.0000 -0.0031 0.0000
vn 1.0000 0.0000 0.0000
usemtl Material
s off
f 4/1/1 5/2/1 3/3/1 2/4/1
f 1/5/1 6/6/1 7/7/1 13/8/1
f 8/9/1 10/10/1 12/11/1
f 8/9/1 4/12/1 2/13/1 10/14/1
f 12/15/1 11/16/1 9/17/1 8/18/1
f 12/15/1 10/10/1 1/19/1 13/8/1
f 17/20/2 15/21/2 16/22/2 18/23/2
f 14/24/2 26/25/2 20/26/2 19/27/2
f 21/28/2 25/29/2 23/30/2
f 21/28/2 23/31/2 15/32/2 17/33/2
f 25/34/2 21/35/2 22/36/2 24/37/2
f 25/34/2 26/25/2 14/38/2 23/39/2
f 11/40/3 12/41/3 25/42/3 24/37/3
f 7/43/4 6/6/4 19/44/4 20/45/4
f 6/46/3 1/47/3 14/38/3 19/27/3
f 2/48/5 3/49/5 16/22/5 15/50/5
f 5/51/3 4/12/3 17/52/3 18/23/3
f 12/15/6 13/53/6 26/54/6 25/55/6
f 13/56/7 7/57/7 20/26/7 26/58/7
f 4/1/8 8/59/8 21/60/8 17/33/8
f 9/61/9 11/16/9 24/62/9 22/63/9
f 3/64/8 5/2/8 18/65/8 16/66/8
f 1/5/10 10/10/10 23/30/10 14/67/10
f 8/9/7 9/68/7 22/36/7 21/69/7
f 10/70/10 2/71/10 15/32/10 23/39/10
