# Blender v2.77 (sub 0) OBJ File: 'numbers.blend'
# www.blender.org
mtllib zero.mtl
o Cube.001
v 0.301919 -0.237559 0.000000
v 0.218145 -0.176646 -0.000000
v 0.301918 0.246512 0.000001
v -0.297411 0.246079 -0.000000
v 0.218145 0.167911 -0.000000
v -0.212995 0.167911 -0.000000
v -0.297409 -0.237561 -0.000000
v -0.212995 -0.176647 -0.000000
v 0.301919 -0.237559 0.100000
v 0.218145 -0.176646 0.100000
v 0.301918 0.246512 0.100001
v -0.297411 0.246079 0.100000
v 0.218145 0.167911 0.100000
v -0.212995 0.167911 0.100000
v -0.297409 -0.237561 0.100000
v -0.212995 -0.176647 0.100000
vt 0.0000 0.0000
vt 0.0000 0.0000
vt 0.0000 0.0000
vt 0.0000 0.0000
vt 0.0000 0.0000
vt 0.0000 0.0000
vt 0.0000 0.0000
vt 0.0000 0.0000
vt 0.9999 0.0001
vt 0.9999 0.8076
vt 0.8602 0.6765
vt 0.8602 0.1017
vt 0.0001 0.8069
vt 0.1409 0.6765
vt 0.0001 0.0001
vt 0.1409 0.1017
vt 0.0000 0.0000
vt 0.0000 0.0000
vt 0.0000 0.0000
vt 0.0000 0.0000
vt 0.0000 0.0000
vt 0.0000 0.0000
vt 0.0000 0.0000
vt 0.0000 0.0000
vn 0.0000 0.0000 -1.0000
vn -0.0000 -0.0000 1.0000
vn 0.0000 -1.0000 0.0000
vn -1.0000 -0.0000 0.0000
vn -0.0007 1.0000 0.0000
vn 1.0000 0.0000 0.0000
vn -0.0000 1.0000 0.0000
usemtl Material
s off
f 1/1/1 2/2/1 5/3/1 3/4/1
f 5/3/1 6/5/1 4/6/1 3/4/1
f 6/5/1 8/7/1 7/8/1 4/6/1
f 1/1/1 7/8/1 8/7/1 2/2/1
f 9/9/2 11/10/2 13/11/2 10/12/2
f 13/11/2 11/10/2 12/13/2 14/14/2
f 14/14/2 12/13/2 15/15/2 16/16/2
f 9/9/2 10/12/2 16/16/2 15/15/2
f 7/8/3 1/1/3 9/17/3 15/18/3
f 4/6/4 7/8/4 15/18/4 12/19/4
f 6/5/3 5/3/3 13/20/3 14/21/3
f 3/4/5 4/6/5 12/19/5 11/22/5
f 8/7/6 6/5/6 14/21/6 16/23/6
f 1/1/6 3/4/6 11/22/6 9/17/6
f 5/3/4 2/2/4 10/24/4 13/20/4
f 2/2/7 8/7/7 16/23/7 10/24/7
